<svg width="24" height="22" viewBox="0 0 24 22" fill="none" xmlns="http://www.w3.org/2000/svg">
<g clip-path="url(#clip0_172_7438)">
<path d="M-20.2664 4.22031C-18.6476 4.22031 -17.5687 7.36757 -17.5687 7.36757H-34.6538V11.5639H-20.2664C-18.8173 11.5639 -17.5687 12.6626 -17.5687 14.1117C-17.5687 15.8861 -17.5687 17.0851 -17.5687 18.6077L-17.591 18.6569C-18.1996 19.9963 -18.7945 21.3054 -20.2664 21.3054H-36.0026C-36.0026 21.3054 -37.2158 20.6677 -37.801 20.0825C-38.3863 19.4972 -39 18.308 -39 18.308H-21.1656V14.1117H-36.0026C-37.4517 14.1117 -38.7005 13.013 -38.7003 11.5639C-38.7 9.59162 -38.7003 8.09293 -38.7003 6.46835C-38.7002 5.13372 -37.3372 4.37018 -36.0026 4.37018C-30.6072 4.37019 -24.7624 4.22031 -20.2664 4.22031Z" fill="url(#paint0_linear_172_7438)"/>
<path d="M-15.6204 4.22031V7.36757H-7.52749V21.3054H-3.18128V7.36757L-1 6.91796L-1.5 4.5L-15.6204 4.22031Z" fill="url(#paint1_linear_172_7438)"/>
<path d="M69.5052 4.22031V7.36757H90.3371V4.22031H69.5052Z" fill="url(#paint2_linear_172_7438)"/>
<path d="M69.5052 21.3054V9.91534H82.8436V12.9127H73.8514V18.4579H89.288V21.3054H69.5052Z" fill="url(#paint3_linear_172_7438)"/>
<path d="M100.528 11.2642L92.4352 4.22031H99.7788L104.575 8.41665L100.528 11.2642Z" fill="url(#paint4_linear_172_7438)"/>
<path d="M118.063 4.22031H112.518L92.1355 21.3054H97.3809L105.174 15.0109L112.518 21.3054H119.711L108.921 11.8636L118.063 4.22031Z" fill="url(#paint5_linear_172_7438)"/>
<path d="M132.3 8.11691V4.22031H136.796V8.11691H132.3Z" fill="url(#paint6_linear_172_7438)"/>
<path d="M132.3 21.3054V10.0652H146.088V13.0626H136.796V21.3054H132.3Z" fill="url(#paint7_linear_172_7438)"/>
<path d="M147.287 21.3054V4.22031H151.484V21.3054H147.287Z" fill="url(#paint8_linear_172_7438)"/>
<path d="M154.031 20.1064V4.22031H157.478V18.6077H167.37V4.22031H170.667V20.1064C170.667 20.856 169.918 21.3054 169.168 21.3054H155.83C154.986 21.3054 154.031 20.9505 154.031 20.1064Z" fill="url(#paint9_linear_172_7438)"/>
<path d="M46.7251 7.36757H54.6682V21.3054H59.1643V7.36757H67.2572V4.22031H46.7251V7.36757Z" fill="url(#paint10_linear_172_7438)"/>
<path fill-rule="evenodd" clip-rule="evenodd" d="M173.215 21.3054V4.22031C173.215 4.22031 182.057 4.07045 186.403 4.52005C188.299 4.71613 190 5.91165 190 7.81717C190 9.44175 190 10.6407 190 12.0135C190 12.4854 189.401 13.0626 189.401 13.0626C189.401 13.0626 190 13.835 190 14.4114C190 16.036 190 17.0851 190 18.6077C190 20.3636 188.159 21.3054 186.403 21.3054H173.215ZM177.561 7.2177V12.0135H184.904C185.654 12.0135 186.403 11.5641 186.403 10.8146C186.403 10.0412 186.403 9.44175 186.403 8.56652C186.403 7.77911 185.692 7.2177 184.904 7.2177H177.561ZM177.561 18.6077V15.1608V14.861H184.904C185.587 14.861 186.403 15.0777 186.403 15.7602C186.403 16.4856 186.403 16.9352 186.403 17.5587C186.403 18.2731 185.619 18.6077 184.904 18.6077H177.561Z" fill="url(#paint11_linear_172_7438)"/>
<path fill-rule="evenodd" clip-rule="evenodd" d="M24.5 21V4.5C24.5 4.5 36.4011 4.22031 42.0792 4.22031C43.8592 4.22031 45.3763 5.58752 45.3763 7.36757C45.3763 8.84228 45.3763 9.74149 45.3763 11.2642C45.3763 13.127 42.0792 14.7112 42.0792 14.7112L45.9758 21.3054H40.4306L36.0844 14.7112H28.4411V21.3054L24.5 21ZM28.4411 11.7138V6.91796H40.4306C41.0674 6.91796 41.3057 7.49034 41.5505 8.07862L41.5752 8.13785C41.5931 8.18091 41.6112 8.22396 41.6296 8.26678C41.9754 9.07371 42.012 9.72455 41.6296 10.5148C41.6128 10.5494 41.5962 10.584 41.5797 10.6186C41.3109 11.1788 41.0544 11.7138 40.4306 11.7138H28.4411Z" fill="url(#paint12_linear_172_7438)"/>
<path d="M11.8224 13.1885L0.432358 21.5812L11.8224 16.7853L23.0626 21.3054L11.8224 13.1885Z" fill="url(#paint13_linear_172_7438)"/>
<path d="M11.8224 0L0.432358 21.5812L11.8224 8.39267L23.0626 21.3054L11.8224 0Z" fill="url(#paint14_linear_172_7438)"/>
</g>
<defs>
<linearGradient id="paint0_linear_172_7438" x1="8" y1="7.5" x2="23" y2="21" gradientUnits="userSpaceOnUse">
<stop stop-color="#FF8000"/>
<stop offset="0.45" stop-color="#FA1E54"/>
<stop offset="1" stop-color="#8AC5FF"/>
</linearGradient>
<linearGradient id="paint1_linear_172_7438" x1="8" y1="7.5" x2="23" y2="21" gradientUnits="userSpaceOnUse">
<stop stop-color="#FF8000"/>
<stop offset="0.45" stop-color="#FA1E54"/>
<stop offset="1" stop-color="#8AC5FF"/>
</linearGradient>
<linearGradient id="paint2_linear_172_7438" x1="8" y1="7.5" x2="23" y2="21" gradientUnits="userSpaceOnUse">
<stop stop-color="#FF8000"/>
<stop offset="0.45" stop-color="#FA1E54"/>
<stop offset="1" stop-color="#8AC5FF"/>
</linearGradient>
<linearGradient id="paint3_linear_172_7438" x1="8" y1="7.5" x2="23" y2="21" gradientUnits="userSpaceOnUse">
<stop stop-color="#FF8000"/>
<stop offset="0.45" stop-color="#FA1E54"/>
<stop offset="1" stop-color="#8AC5FF"/>
</linearGradient>
<linearGradient id="paint4_linear_172_7438" x1="8" y1="7.5" x2="23" y2="21" gradientUnits="userSpaceOnUse">
<stop stop-color="#FF8000"/>
<stop offset="0.45" stop-color="#FA1E54"/>
<stop offset="1" stop-color="#8AC5FF"/>
</linearGradient>
<linearGradient id="paint5_linear_172_7438" x1="8" y1="7.5" x2="23" y2="21" gradientUnits="userSpaceOnUse">
<stop stop-color="#FF8000"/>
<stop offset="0.45" stop-color="#FA1E54"/>
<stop offset="1" stop-color="#8AC5FF"/>
</linearGradient>
<linearGradient id="paint6_linear_172_7438" x1="8" y1="7.5" x2="23" y2="21" gradientUnits="userSpaceOnUse">
<stop stop-color="#FF8000"/>
<stop offset="0.45" stop-color="#FA1E54"/>
<stop offset="1" stop-color="#8AC5FF"/>
</linearGradient>
<linearGradient id="paint7_linear_172_7438" x1="8" y1="7.5" x2="23" y2="21" gradientUnits="userSpaceOnUse">
<stop stop-color="#FF8000"/>
<stop offset="0.45" stop-color="#FA1E54"/>
<stop offset="1" stop-color="#8AC5FF"/>
</linearGradient>
<linearGradient id="paint8_linear_172_7438" x1="8" y1="7.5" x2="23" y2="21" gradientUnits="userSpaceOnUse">
<stop stop-color="#FF8000"/>
<stop offset="0.45" stop-color="#FA1E54"/>
<stop offset="1" stop-color="#8AC5FF"/>
</linearGradient>
<linearGradient id="paint9_linear_172_7438" x1="8" y1="7.5" x2="23" y2="21" gradientUnits="userSpaceOnUse">
<stop stop-color="#FF8000"/>
<stop offset="0.45" stop-color="#FA1E54"/>
<stop offset="1" stop-color="#8AC5FF"/>
</linearGradient>
<linearGradient id="paint10_linear_172_7438" x1="8" y1="7.5" x2="23" y2="21" gradientUnits="userSpaceOnUse">
<stop stop-color="#FF8000"/>
<stop offset="0.45" stop-color="#FA1E54"/>
<stop offset="1" stop-color="#8AC5FF"/>
</linearGradient>
<linearGradient id="paint11_linear_172_7438" x1="8" y1="7.5" x2="23" y2="21" gradientUnits="userSpaceOnUse">
<stop stop-color="#FF8000"/>
<stop offset="0.45" stop-color="#FA1E54"/>
<stop offset="1" stop-color="#8AC5FF"/>
</linearGradient>
<linearGradient id="paint12_linear_172_7438" x1="8" y1="7.5" x2="23" y2="21" gradientUnits="userSpaceOnUse">
<stop stop-color="#FF8000"/>
<stop offset="0.45" stop-color="#FA1E54"/>
<stop offset="1" stop-color="#8AC5FF"/>
</linearGradient>
<linearGradient id="paint13_linear_172_7438" x1="8" y1="7.5" x2="23" y2="21" gradientUnits="userSpaceOnUse">
<stop stop-color="#FF8000"/>
<stop offset="0.45" stop-color="#FA1E54"/>
<stop offset="1" stop-color="#8AC5FF"/>
</linearGradient>
<linearGradient id="paint14_linear_172_7438" x1="8" y1="7.5" x2="23" y2="21" gradientUnits="userSpaceOnUse">
<stop stop-color="#FF8000"/>
<stop offset="0.45" stop-color="#FA1E54"/>
<stop offset="1" stop-color="#8AC5FF"/>
</linearGradient>
<clipPath id="clip0_172_7438">
<rect width="24" height="22" fill="white"/>
</clipPath>
</defs>
</svg>
