<svg width="50" height="50" viewBox="0 0 50 50" fill="none" xmlns="http://www.w3.org/2000/svg">
<g id="g579">
<g id="g581">
<g id="Clip path group">
<mask id="mask0_462_23666" style="mask-type:luminance" maskUnits="userSpaceOnUse" x="0" y="0" width="50" height="50">
<g id="clipPath587">
<path id="path585" d="M0.442383 0.677456H49.4441V49.6792H0.442383V0.677456Z" fill="white"/>
</g>
</mask>
<g mask="url(#mask0_462_23666)">
<g id="g583">
<g id="g589">
<path id="path591" d="M41.0544 20.1914H44.1231V44.7417H48.7263V14.8211L24.9432 5.61467L1.16016 14.8211V44.7417H5.76335V20.1914H37.9856" stroke="white" stroke-width="1.02087" stroke-miterlimit="10" stroke-linecap="round" stroke-linejoin="round"/>
</g>
</g>
</g>
</g>
</g>
<g id="g601">
<path id="path603" d="M15.7369 38.6041H8.83203V44.7417H19.5729V38.6041H18.8056" stroke="white" stroke-width="1.02087" stroke-miterlimit="10" stroke-linecap="round" stroke-linejoin="round"/>
</g>
<path id="path605" d="M30.314 38.6041H19.5732V44.7417H30.314V38.6041Z" stroke="white" stroke-width="1.02087" stroke-miterlimit="10" stroke-linecap="round" stroke-linejoin="round"/>
<path id="path607" d="M41.0552 38.6041H30.3145V44.7417H41.0552V38.6041Z" stroke="white" stroke-width="1.02087" stroke-miterlimit="10" stroke-linecap="round" stroke-linejoin="round"/>
<path id="path609" d="M35.6841 32.4664H24.9434V38.604H35.6841V32.4664Z" stroke="white" stroke-width="1.02087" stroke-miterlimit="10" stroke-linecap="round" stroke-linejoin="round"/>
<g id="g611">
<path id="path613" d="M24.9429 38.604V32.4664H14.2021V38.604" stroke="white" stroke-width="1.02087" stroke-miterlimit="10" stroke-linecap="round" stroke-linejoin="round"/>
</g>
<path id="path615" d="M30.314 26.3287H19.5732V32.4663H30.314V26.3287Z" stroke="white" stroke-width="1.02087" stroke-miterlimit="10" stroke-linecap="round" stroke-linejoin="round"/>
<g id="g617">
<path id="path619" d="M14.2021 40.1382V38.6038" stroke="white" stroke-width="1.02087" stroke-miterlimit="10" stroke-linecap="round" stroke-linejoin="round"/>
</g>
<g id="g621">
<path id="path623" d="M24.9434 40.1382V38.6038" stroke="white" stroke-width="1.02087" stroke-miterlimit="10" stroke-linecap="round" stroke-linejoin="round"/>
</g>
<g id="g625">
<path id="path627" d="M35.6846 40.1382V38.6038" stroke="white" stroke-width="1.02087" stroke-miterlimit="10" stroke-linecap="round" stroke-linejoin="round"/>
</g>
<g id="g629">
<path id="path631" d="M19.5732 34.001V32.4666" stroke="white" stroke-width="1.02087" stroke-miterlimit="10" stroke-linecap="round" stroke-linejoin="round"/>
</g>
<g id="g633">
<path id="path635" d="M24.9434 27.8633V26.3289" stroke="white" stroke-width="1.02087" stroke-miterlimit="10" stroke-linecap="round" stroke-linejoin="round"/>
</g>
<g id="g637">
<path id="path639" d="M30.3145 34.001V32.4666" stroke="white" stroke-width="1.02087" stroke-miterlimit="10" stroke-linecap="round" stroke-linejoin="round"/>
</g>
</g>
</svg>
