<svg width="50" height="50" viewBox="0 0 50 50" fill="none" xmlns="http://www.w3.org/2000/svg">
<g id="Layer_1" clip-path="url(#clip0_462_9999)">
<g id="Group">
<g id="Group_2">
<path id="Vector" d="M43.6289 4.75326C43.2852 4.40986 42.7282 4.40958 42.3844 4.75326L33.2608 13.8766C32.917 14.2203 32.917 14.7773 33.2607 15.1211C33.4326 15.2928 33.6577 15.3787 33.883 15.3787C34.1081 15.3787 34.3334 15.2928 34.5052 15.1211L43.6289 5.99773C43.9724 5.65395 43.9724 5.09685 43.6289 4.75326Z" fill="white"/>
</g>
</g>
<g id="Group_3">
<g id="Group_4">
<path id="Vector_2" d="M46.1091 7.19512C45.7653 6.85163 45.2083 6.85163 44.8646 7.19512L35.7411 16.3186C35.3975 16.6624 35.3975 17.2194 35.741 17.5631C35.9129 17.7349 36.1382 17.8207 36.3633 17.8207C36.5884 17.8207 36.8137 17.7349 36.9856 17.5631L46.1091 8.43949C46.4528 8.09581 46.4528 7.5387 46.1091 7.19512Z" fill="white"/>
</g>
</g>
<g id="Group_5">
<g id="Group_6">
<path id="Vector_3" d="M37.5033 22.6018L48.829 11.2761C49.1727 10.9323 49.1727 10.3753 48.829 10.0316C48.4852 9.68818 47.9282 9.6879 47.5845 10.0316L36.259 21.3573C34.8637 22.7525 32.7302 23.1186 30.9501 22.2685C30.596 22.0995 30.1732 22.185 29.9128 22.4784L26.0645 26.8142C26.063 26.8158 26.0613 26.8173 26.0597 26.819C26.0582 26.8207 26.057 26.8225 26.0555 26.8242L9.42277 45.5633C9.41856 45.5681 9.41435 45.573 9.41023 45.5779C9.35539 45.6423 9.30362 45.6988 9.25117 45.7514C8.15294 46.8495 6.36609 46.8494 5.26834 45.7514C4.7364 45.2195 4.44345 44.5122 4.44345 43.7599C4.44345 43.0077 4.7364 42.3004 5.2693 41.7675C5.3204 41.7161 5.37687 41.6645 5.44186 41.6092C5.44683 41.6051 5.45162 41.6009 5.4564 41.5967L15.8547 32.3673C16.2182 32.0447 16.2512 31.4885 15.9287 31.1251C15.6061 30.7615 15.0498 30.7283 14.6865 31.0511L4.2951 40.2744C4.19576 40.3591 4.10685 40.4411 4.02396 40.5241C3.15964 41.3884 2.68359 42.5375 2.68359 43.7599C2.68359 44.9822 3.15954 46.1314 4.02387 46.9957C4.91614 47.8878 6.08788 48.3339 7.2599 48.3338C8.43144 48.3338 9.60346 47.8879 10.4951 46.9962C10.5796 46.9119 10.6614 46.8229 10.7454 46.7245L23.42 32.4445L36.0948 46.7247C36.1788 46.8232 36.2606 46.9122 36.3445 46.9959C37.2366 47.888 38.4085 48.334 39.5803 48.334C40.7522 48.334 41.9241 47.8879 42.8163 46.9958C44.6003 45.2116 44.6003 42.3086 42.8168 40.5248C42.7326 40.4403 42.6435 40.3585 42.5452 40.2746L27.9604 27.3293L30.8139 24.1143C33.1258 24.9335 35.7419 24.3629 37.5033 22.6018ZM41.3837 41.5967C41.3885 41.601 41.3933 41.6052 41.3982 41.6093C41.4626 41.6641 41.5192 41.7159 41.5717 41.7684C42.6698 42.8665 42.6698 44.6532 41.5718 45.7512C40.4736 46.8492 38.6869 46.8492 37.5883 45.7507C37.5364 45.6987 37.4844 45.6421 37.4296 45.5777C37.4255 45.5728 37.4212 45.5679 37.417 45.5631L24.5965 31.1189L26.7919 28.6454L41.3837 41.5967Z" fill="white"/>
</g>
</g>
<g id="Group_7">
<g id="Group_8">
<path id="Vector_4" d="M40.9869 2.19072C40.6432 1.84723 40.0862 1.84723 39.7425 2.19072L28.4169 13.5165C26.6554 15.2779 26.085 17.8937 26.9041 20.2061L23.419 23.2996L20.0694 20.3265C21.8016 16.9182 21.1693 12.78 18.4212 10.0318C15.6918 7.30241 12.5304 5.38168 9.5194 4.62358C6.37611 3.83238 3.6812 4.36058 1.93035 6.11134C0.179489 7.8621 -0.348811 10.5574 0.442587 13.7005C1.20077 16.7113 3.12141 19.8727 5.85096 22.602C8.59908 25.3503 12.7372 25.9826 16.1457 24.2503C16.1457 24.2503 19.4213 27.9406 19.4628 27.9875C19.6367 28.1834 19.8784 28.2832 20.1213 28.2832C20.3291 28.2832 20.5375 28.2101 20.7051 28.0614L28.5402 21.1069C28.8336 20.8465 28.919 20.4235 28.7501 20.0696C27.8998 18.2893 28.266 16.156 29.6613 14.7609L40.9869 3.4352C41.3306 3.09142 41.3306 2.53441 40.9869 2.19072ZM20.1949 26.1613L16.9918 22.5526C16.7081 22.233 16.2355 22.1631 15.8718 22.3878C13.0506 24.1274 9.44149 23.7041 7.09515 21.3577C4.58725 18.8499 2.83075 15.978 2.14903 13.2708C1.51498 10.7521 1.87924 8.6513 3.17482 7.35581C4.47021 6.06014 6.57096 5.69607 9.08958 6.33022C11.7968 7.01184 14.6689 8.76825 17.1766 11.2761C19.5229 13.6224 19.9463 17.2315 18.2066 20.0527C17.9822 20.4165 18.0518 20.8889 18.3714 21.1727L22.0932 24.4761L20.1949 26.1613Z" fill="white"/>
</g>
</g>
</g>
<defs>
<clipPath id="clip0_462_9999">
<rect width="49.0018" height="49.0018" fill="white" transform="translate(0.0839844 0.632324)"/>
</clipPath>
</defs>
</svg>
