<svg width="50" height="50" viewBox="0 0 50 50" fill="none" xmlns="http://www.w3.org/2000/svg">
<g id="Capa_1" clip-path="url(#clip0_462_28015)">
<g id="Group">
<path id="Vector" d="M44.1677 14.7281C42.3418 15.8246 40.8085 17.3603 39.7096 19.1863C38.6082 17.3603 37.075 15.8247 35.249 14.7281C37.075 13.6268 38.6082 12.0935 39.7096 10.2676C40.8085 12.0936 42.3418 13.6268 44.1677 14.7281Z" stroke="white" stroke-width="1.02087" stroke-miterlimit="10" stroke-linecap="round" stroke-linejoin="round"/>
<path id="Vector_2" d="M3.18164 41.4843H2.49744C1.4951 41.4843 0.801325 40.4831 1.15324 39.5446L4.53589 30.5243C4.74597 29.9639 5.28164 29.5928 5.88009 29.5928H20.0241C20.6225 29.5928 21.1581 29.964 21.3683 30.5243L24.7509 39.5446C25.1028 40.4831 24.4091 41.4843 23.4067 41.4843H6.53137" stroke="white" stroke-width="1.02087" stroke-miterlimit="10" stroke-linecap="round" stroke-linejoin="round"/>
<path id="Vector_3" d="M41.3829 29.5928H43.8072C44.4056 29.5928 44.9412 29.964 45.1514 30.5243L48.534 39.5446C48.886 40.4831 48.1922 41.4843 47.1898 41.4843H26.2806C25.2783 41.4843 24.5845 40.4831 24.9364 39.5446L28.3191 30.5243C28.5292 29.9639 29.0648 29.5928 29.6633 29.5928H38.0333" stroke="white" stroke-width="1.02087" stroke-miterlimit="10" stroke-linecap="round" stroke-linejoin="round"/>
<path id="Vector_4" d="M21.7926 17.7012H31.9156C32.514 17.7012 33.0496 18.0724 33.2598 18.6327L36.6424 27.653C36.9944 28.5915 36.3006 29.5927 35.2982 29.5927H14.389C13.3867 29.5927 12.6929 28.5915 13.0448 27.653L16.4275 18.6327C16.6376 18.0723 17.1732 17.7012 17.7717 17.7012H18.443" stroke="white" stroke-width="1.02087" stroke-miterlimit="10" stroke-linecap="round" stroke-linejoin="round"/>
<path id="Vector_5" d="M12.9521 16.7315C11.5228 15.8732 10.3226 14.6711 9.46237 13.2417C8.60024 14.6711 7.40008 15.8732 5.9707 16.7315C7.40008 17.5937 8.60024 18.7938 9.46237 20.2232C10.3226 18.7938 11.5228 17.5936 12.9521 16.7315Z" stroke="white" stroke-width="1.02087" stroke-miterlimit="10" stroke-linecap="round" stroke-linejoin="round"/>
<path id="Vector_6" d="M19.9335 11.5304C18.8084 12.206 17.8638 13.1522 17.1867 14.2772C16.5081 13.1522 15.5635 12.206 14.4385 11.5304C15.5635 10.8519 16.5081 9.90726 17.1867 8.78223C17.8638 9.90726 18.8085 10.852 19.9335 11.5304Z" stroke="white" stroke-width="1.02087" stroke-miterlimit="10" stroke-linecap="round" stroke-linejoin="round"/>
</g>
</g>
<defs>
<clipPath id="clip0_462_28015">
<rect width="49.0018" height="49.0018" fill="white" transform="translate(0.342773 0.632324)"/>
</clipPath>
</defs>
</svg>
