<svg width="469" height="109" viewBox="0 0 469 109" fill="none" xmlns="http://www.w3.org/2000/svg">
<path d="M151.297 0.193598C151.665 0.420662 152.068 0.282045 152.393 0.653712C153.552 0.662078 154.704 1.01816 155.867 0.826948C156.058 0.86519 156.247 0.920156 156.438 0.939278C165.851 1.88338 175.225 3.38799 184.602 4.86629C197.501 6.9003 210.363 9.32868 223.223 11.8192C227.563 12.6593 231.897 13.57 236.233 14.4496C235.438 14.9587 234.631 14.8858 233.831 14.8738C226.437 14.7675 219.044 14.7436 211.65 14.9826C196.788 15.4618 181.955 16.725 167.128 18.226C154.108 19.5442 141.109 21.1838 128.147 23.3684C112.467 26.0119 96.8305 29.0964 81.2706 32.9553C64.3 37.1631 47.4655 42.2027 31.0486 49.8177C23.6923 53.2308 16.4191 56.9391 9.54059 62.0994C5.81911 64.8911 2.88962 68.805 0.756869 73.9988C-0.398571 76.8144 -0.242102 79.8702 1.3021 82.2221C1.98934 83.2677 2.68741 84.3039 3.5215 85.1189C11.5795 93.0016 20.6028 97.4293 30.0316 100.407C30.2062 100.504 30.3758 100.637 30.5564 100.694C38.3014 103.17 46.1344 104.798 54.0383 105.735C64.9681 107.032 75.9207 107.672 86.8817 107.884C100.849 108.155 114.818 108.208 128.787 108.354C129.123 108.753 129.523 108.586 129.898 108.592C133.241 108.657 136.586 108.693 139.93 108.767C140.456 108.779 141.006 108.577 141.506 109C172.709 109 203.912 109 235.116 109C235.42 108.652 235.779 108.784 236.116 108.778C239.46 108.711 242.805 108.664 246.148 108.592C246.559 108.583 246.999 108.78 247.371 108.345C261.801 107.982 276.23 107.567 290.652 106.851C304.881 106.145 319.114 105.614 333.34 104.763C349.442 103.799 365.544 102.747 381.632 101.342C384.119 101.126 386.597 100.725 389.08 100.41L389.047 100.341C389.051 100.336 389.055 100.335 389.058 100.33C389.066 100.356 389.073 100.384 389.08 100.41C389.27 100.435 389.463 100.504 389.651 100.479C395.317 99.7311 400.998 99.1514 406.646 98.1822C417.601 96.3012 428.565 94.4847 439.403 91.411C446.125 89.5048 452.802 87.3597 459.314 84.2716C461.014 83.4649 462.76 82.7276 464.225 81.1286C465.841 79.9873 466.948 78.0022 467.883 75.9575C469.447 72.5432 469.642 68.6687 466.679 66.1041C466.251 65.7336 465.852 65.2938 465.424 64.9222C461.272 61.3071 456.696 59.1094 452.127 56.975C441.053 51.8027 429.706 48.1578 418.304 44.8594C413.477 43.4623 408.649 42.0653 403.782 40.9718C403.436 40.5177 402.95 40.6025 402.555 40.3121C403.593 40.3731 404.617 40.5141 405.644 40.6264C405.906 40.6551 406.231 40.6551 406.246 40.1209C406.258 39.6345 406.016 39.4779 405.701 39.5389C405.173 39.417 404.645 39.2915 404.116 39.1744C393.083 36.7209 382.141 33.5014 371.103 31.0837C363.3 29.3748 355.534 27.3026 347.692 25.9928C338.552 24.4655 329.459 22.3956 320.296 21.1229C314.818 20.3616 309.374 19.1522 303.875 18.6C297.23 17.9332 290.577 17.3261 283.943 16.4955C273.434 15.1786 263.026 12.6115 252.559 10.758C243.12 9.08608 233.68 7.43808 224.223 6.01475C215.568 4.71213 206.899 3.61868 198.217 2.77018C191.187 2.08301 184.158 1.36234 177.114 1.02294C176.856 0.956016 176.599 0.838943 176.339 0.828187C176.143 0.818626 175.948 0.810221 175.752 0.801855C174.771 0.690714 173.786 0.672833 172.806 0.669248C167.85 0.44338 162.894 0.2211 157.939 1.17039e-05C157.926 1.17045e-05 157.912 1.17051e-05 157.898 1.17057e-05C155.624 1.18051e-05 153.351 1.19045e-05 151.077 1.20038e-05C151.145 0.0872522 151.22 0.1446 151.297 0.193598ZM435.437 58.1378C442.364 60.4825 449.292 62.8775 455.961 66.538C457.297 67.2706 458.562 68.2254 459.63 69.6212C460.783 71.127 460.712 72.3317 459.345 73.3702C456.566 75.4795 453.535 76.6052 450.536 77.8194C441.025 81.6687 431.297 83.8951 421.523 85.7678C402.247 89.463 382.868 91.5281 363.468 93.1438C337.947 95.2699 312.394 96.2629 286.845 97.4532C241.495 99.5637 196.135 99.7932 150.769 99.5363C127.817 99.406 104.866 99.1598 81.9145 98.8862C70.6333 98.7511 59.3593 98.126 48.1215 96.6418C38.6023 95.3857 29.1783 93.2717 20.025 89.1559C16.7717 87.6931 13.7279 85.5826 11.0234 82.5459C8.0662 79.226 8.04938 76.72 10.9344 73.2603C12.6086 71.2525 14.6474 70.1471 16.4696 68.5134C16.8259 68.321 17.193 68.1645 17.5348 67.9326C21.0204 65.5724 24.5553 63.3794 28.1973 61.5748C41.4235 55.0223 54.8904 49.7006 68.5956 45.6876C82.9279 41.4917 97.3673 38.1801 111.854 35.3227C120.203 33.6771 128.567 32.1797 136.951 30.9177C145.833 29.5804 154.725 28.4235 163.62 27.2858C173.129 26.0693 182.659 25.2375 192.192 24.4547C202.496 23.6086 212.809 22.9358 223.124 22.6573C239.567 22.2128 256.017 22.3168 272.465 22.6227C273.502 22.6418 274.549 22.6705 275.577 22.8641C280.917 23.8715 286.247 24.9913 291.59 25.9641C301.441 27.7579 311.239 30.0751 321.079 31.9789C324.085 32.5609 327.073 33.3783 330.11 33.6197C332.58 34.1539 335.046 34.7216 337.52 35.2151C343.004 36.3098 348.491 37.3722 353.979 38.4394C361.028 39.8102 368.076 41.206 375.132 42.529C381.158 43.6607 387.159 45.0315 393.158 46.4213C407.335 49.7042 421.456 53.4053 435.437 58.1378ZM388.447 37.0317C388.348 37.0006 388.252 36.9719 388.154 36.9456C388.252 36.9719 388.349 37.0017 388.446 37.028C388.446 37.028 388.446 37.0305 388.447 37.0317ZM376.081 34.2005C376.075 34.2029 376.069 34.2065 376.063 34.2089C375.844 34.289 375.588 34.179 375.375 34.2937C375.599 34.3463 375.822 34.3989 376.046 34.4503C375.845 34.5136 375.594 34.3236 375.375 34.2937C370.173 33.2612 364.973 32.1988 359.767 31.2104C357.338 30.7491 354.922 30.0955 352.467 29.9305C352.254 29.9162 352.048 29.7178 351.837 29.6067C351.931 29.4728 352.032 29.3987 352.136 29.3473C352.136 29.3473 352.14 29.3449 352.142 29.3437C352.573 29.1334 353.065 29.4812 353.492 29.235C354.697 29.9544 355.986 29.5087 357.233 29.7823C362.897 31.0288 368.576 32.1497 374.251 33.303C374.958 33.4476 375.587 34.1646 376.35 33.8969C376.276 34.0738 376.182 34.1563 376.081 34.2005Z" fill="url(#paint0_linear_459_30131)"/>
<defs>
<linearGradient id="paint0_linear_459_30131" x1="115.46" y1="109" x2="255.816" y2="10.4859" gradientUnits="userSpaceOnUse">
<stop stop-color="#EA5921"/>
<stop offset="1" stop-color="#F4A578"/>
</linearGradient>
</defs>
</svg>
